<?xml version="1.0" standalone="no"?>
<!DOCTYPE svg PUBLIC "-//W3C//DTD SVG 20010904//EN"
 "http://www.w3.org/TR/2001/REC-SVG-20010904/DTD/svg10.dtd">
<svg version="1.0" xmlns="http://www.w3.org/2000/svg"
 width="512.000000pt" height="512.000000pt" viewBox="0 0 512.000000 512.000000"
 preserveAspectRatio="xMidYMid meet">

<g transform="translate(0.000000,512.000000) scale(0.100000,-0.100000)"
fill="#ffffffff" stroke="#000000ff" stroke-width='50'>
<path d="M2423 4465 c-54 -12 -575 -234 -596 -254 -4 -4 382 -191 858 -415
l866 -407 362 161 c199 89 366 165 370 170 12 11 -82 84 -152 119 -31 16 -351
159 -712 320 -449 199 -677 296 -725 306 -84 18 -188 18 -271 0z"/>
<path d="M1189 3931 c-206 -94 -305 -148 -343 -190 -10 -10 -14 -21 -9 -24 34
-21 1568 -698 1603 -707 60 -16 194 -15 251 3 72 22 469 201 461 208 -4 3
-320 152 -702 332 -382 179 -767 360 -855 401 -88 42 -167 76 -175 75 -8 0
-112 -45 -231 -98z"/>
<path d="M651 3383 c-8 -39 -11 -293 -11 -827 0 -865 -1 -849 71 -996 51 -102
161 -218 254 -267 66 -34 1376 -617 1413 -628 l22 -6 0 1014 0 1015 -68 21
c-37 11 -414 174 -837 362 -424 188 -784 347 -801 355 l-31 13 -12 -56z"/>
<path d="M4083 3272 l-373 -165 0 -273 c0 -168 -4 -284 -11 -301 -16 -43 -69
-92 -111 -104 -46 -12 -103 1 -143 33 -49 39 -55 69 -55 293 0 113 -4 205 -8
205 -4 0 -123 -51 -263 -114 -139 -63 -287 -124 -326 -136 l-73 -22 0 -1015 0
-1014 23 6 c35 10 1324 583 1402 624 103 53 209 162 263 272 73 148 72 128 71
1004 -1 553 -4 794 -12 826 l-12 47 -372 -166z"/>
</g>
</svg>
